<mxfile host="app.diagrams.net" modified="2023-07-20T13:31:31.763Z" agent="Mozilla/5.0 (Windows NT 10.0; Win64; x64) AppleWebKit/537.36 (KHTML, like Gecko) Chrome/114.0.0.0 Safari/537.36 Edg/114.0.1823.82" version="21.6.3" etag="f1WqNVjRTpQoHYd7nt_z" type="github">
  <diagram name="Page-1" id="yECzGg2GSRshUfWIzckP">
    <mxGraphModel>
      <root>
        <mxCell id="0" />
        <mxCell id="1" parent="0" />
      </root>
    </mxGraphModel>
  </diagram>
</mxfile>
